<?xml version="1.0" encoding="UTF-8"?>
<svg xmlns="http://www.w3.org/2000/svg" xmlns:xlink="http://www.w3.org/1999/xlink" width="1000" height="520" viewBox="0 0 1000 520">
<defs>
<g>
<g id="glyph-0-0-e08684cc">
<path d="M 9.5 0 C 9.5 0 7.921875 0 7.921875 0 C 7.734375 -0.421875 7.609375 -1.03125 7.625 -1.671875 C 7.625 -1.671875 7.640625 -2.578125 7.640625 -2.578125 C 7.65625 -3.84375 7.109375 -4.390625 5.96875 -4.390625 C 5.96875 -4.390625 2.609375 -4.390625 2.609375 -4.390625 C 2.609375 -4.390625 2.609375 0 2.609375 0 C 2.609375 0 1.296875 0 1.296875 0 C 1.296875 0 1.296875 -10.203125 1.296875 -10.203125 C 1.296875 -10.203125 6 -10.203125 6 -10.203125 C 8.015625 -10.203125 9.109375 -9.234375 9.109375 -7.46875 C 9.109375 -6.3125 8.65625 -5.59375 7.5 -5.046875 C 8.609375 -4.5625 8.859375 -4.0625 8.890625 -2.375 C 8.90625 -1.015625 9.015625 -0.65625 9.5 -0.328125 C 9.5 -0.328125 9.5 0 9.5 0 Z M 7.75 -7.296875 C 7.75 -8.4375 7.203125 -9.0625 5.75 -9.0625 C 5.75 -9.0625 2.609375 -9.0625 2.609375 -9.0625 C 2.609375 -9.0625 2.609375 -5.546875 2.609375 -5.546875 C 2.609375 -5.546875 5.75 -5.546875 5.75 -5.546875 C 7.140625 -5.546875 7.75 -6.09375 7.75 -7.296875 Z M 7.75 -7.296875 "/>
</g>
<g id="glyph-0-1-e08684cc">
<path d="M 7.1875 -3.328125 C 7.1875 -3.328125 1.78125 -3.328125 1.78125 -3.328125 C 1.8125 -1.65625 2.71875 -0.875 3.9375 -0.875 C 4.875 -0.875 5.53125 -1.265625 5.859375 -2.21875 C 5.859375 -2.21875 7.03125 -2.21875 7.03125 -2.21875 C 6.734375 -0.734375 5.578125 0.203125 3.890625 0.203125 C 1.828125 0.203125 0.5625 -1.21875 0.5625 -3.625 C 0.5625 -6.03125 1.875 -7.546875 3.921875 -7.546875 C 5.296875 -7.546875 6.40625 -6.8125 6.890625 -5.609375 C 7.09375 -5.0625 7.1875 -4.390625 7.1875 -3.328125 Z M 5.9375 -4.375 C 5.9375 -5.515625 5.046875 -6.46875 3.90625 -6.46875 C 2.734375 -6.46875 1.90625 -5.59375 1.8125 -4.28125 C 1.8125 -4.28125 5.921875 -4.28125 5.921875 -4.28125 C 5.9375 -4.3125 5.9375 -4.375 5.9375 -4.375 Z M 5.9375 -4.375 "/>
</g>
<g id="glyph-0-2-e08684cc">
<path d="M 3.5625 0 C 3.15625 0.0625 2.890625 0.09375 2.609375 0.09375 C 1.6875 0.09375 1.1875 -0.328125 1.1875 -1.0625 C 1.1875 -1.0625 1.1875 -6.390625 1.1875 -6.390625 C 1.1875 -6.390625 0.203125 -6.390625 0.203125 -6.390625 C 0.203125 -6.390625 0.203125 -7.34375 0.203125 -7.34375 C 0.203125 -7.34375 1.1875 -7.34375 1.1875 -7.34375 C 1.1875 -7.34375 1.1875 -9.359375 1.1875 -9.359375 C 1.1875 -9.359375 2.359375 -9.359375 2.359375 -9.359375 C 2.359375 -9.359375 2.359375 -7.34375 2.359375 -7.34375 C 2.359375 -7.34375 3.5625 -7.34375 3.5625 -7.34375 C 3.5625 -7.34375 3.5625 -6.390625 3.5625 -6.390625 C 3.5625 -6.390625 2.359375 -6.390625 2.359375 -6.390625 C 2.359375 -6.390625 2.359375 -1.578125 2.359375 -1.578125 C 2.359375 -1.0625 2.484375 -0.921875 3 -0.921875 C 3.21875 -0.921875 3.40625 -0.9375 3.5625 -0.984375 C 3.5625 -0.984375 3.5625 0 3.5625 0 Z M 3.5625 0 "/>
</g>
<g id="glyph-0-3-e08684cc">
<path d="M 2.140625 0 C 2.140625 0 0.984375 0 0.984375 0 C 0.984375 0 0.984375 -7.34375 0.984375 -7.34375 C 0.984375 -7.34375 2.140625 -7.34375 2.140625 -7.34375 C 2.140625 -7.34375 2.140625 0 2.140625 0 Z M 2.296875 -8.4375 C 2.296875 -8.4375 0.84375 -8.4375 0.84375 -8.4375 C 0.84375 -8.4375 0.84375 -9.890625 0.84375 -9.890625 C 0.84375 -9.890625 2.296875 -9.890625 2.296875 -9.890625 C 2.296875 -9.890625 2.296875 -8.4375 2.296875 -8.4375 Z M 2.296875 -8.4375 "/>
</g>
<g id="glyph-0-4-e08684cc">
<path d="M 10.640625 0 C 10.640625 0 9.484375 0 9.484375 0 C 9.484375 0 9.484375 -5.046875 9.484375 -5.046875 C 9.484375 -5.984375 8.984375 -6.53125 8.140625 -6.53125 C 7.1875 -6.53125 6.390625 -5.671875 6.390625 -4.609375 C 6.390625 -4.609375 6.390625 0 6.390625 0 C 6.390625 0 5.234375 0 5.234375 0 C 5.234375 0 5.234375 -5.046875 5.234375 -5.046875 C 5.234375 -5.984375 4.75 -6.53125 3.875 -6.53125 C 2.921875 -6.53125 2.15625 -5.671875 2.15625 -4.609375 C 2.15625 -4.609375 2.15625 0 2.15625 0 C 2.15625 0 1 0 1 0 C 1 0 1 -7.34375 1 -7.34375 C 1 -7.34375 2.0625 -7.34375 2.0625 -7.34375 C 2.0625 -7.34375 2.0625 -6.296875 2.0625 -6.296875 C 2.6875 -7.1875 3.328125 -7.546875 4.3125 -7.546875 C 5.265625 -7.546875 5.859375 -7.203125 6.28125 -6.421875 C 6.96875 -7.25 7.5625 -7.546875 8.546875 -7.546875 C 9.90625 -7.546875 10.640625 -6.8125 10.640625 -5.5 C 10.640625 -5.5 10.640625 0 10.640625 0 Z M 10.640625 0 "/>
</g>
<g id="glyph-0-5-e08684cc">
<path d="M 6.8125 0 C 6.8125 0 5.65625 0 5.65625 0 C 5.65625 0 5.65625 -5.078125 5.65625 -5.078125 C 5.65625 -5.96875 5.0625 -6.53125 4.140625 -6.53125 C 2.953125 -6.53125 2.140625 -5.546875 2.140625 -4.046875 C 2.140625 -4.046875 2.140625 0 2.140625 0 C 2.140625 0 0.984375 0 0.984375 0 C 0.984375 0 0.984375 -7.34375 0.984375 -7.34375 C 0.984375 -7.34375 2.0625 -7.34375 2.0625 -7.34375 C 2.0625 -7.34375 2.0625 -6.109375 2.0625 -6.109375 C 2.703125 -7.125 3.40625 -7.546875 4.5 -7.546875 C 5.90625 -7.546875 6.8125 -6.765625 6.8125 -5.546875 C 6.8125 -5.546875 6.8125 0 6.8125 0 Z M 6.8125 0 "/>
</g>
<g id="glyph-0-6-e08684cc">
</g>
<g id="glyph-0-7-e08684cc">
<path d="M 7.484375 -0.03125 C 7.109375 0.0625 6.9375 0.09375 6.6875 0.09375 C 6.125 0.09375 5.609375 -0.3125 5.484375 -0.875 C 4.84375 -0.1875 3.9375 0.203125 3 0.203125 C 1.515625 0.203125 0.59375 -0.578125 0.59375 -1.90625 C 0.59375 -2.796875 1.015625 -3.453125 1.875 -3.8125 C 2.328125 -3.984375 2.578125 -4.046875 4.234375 -4.25 C 5.15625 -4.375 5.453125 -4.578125 5.453125 -5.0625 C 5.453125 -5.0625 5.453125 -5.375 5.453125 -5.375 C 5.453125 -6.078125 4.859375 -6.46875 3.8125 -6.46875 C 2.71875 -6.46875 2.1875 -6.0625 2.09375 -5.171875 C 2.09375 -5.171875 0.90625 -5.171875 0.90625 -5.171875 C 0.984375 -6.859375 2.078125 -7.546875 3.84375 -7.546875 C 5.65625 -7.546875 6.609375 -6.84375 6.609375 -5.546875 C 6.609375 -5.546875 6.609375 -1.453125 6.609375 -1.453125 C 6.609375 -1.09375 6.828125 -0.875 7.234375 -0.875 C 7.3125 -0.875 7.359375 -0.875 7.484375 -0.90625 C 7.484375 -0.90625 7.484375 -0.03125 7.484375 -0.03125 Z M 5.453125 -2.53125 C 5.453125 -2.53125 5.453125 -3.625 5.453125 -3.625 C 5.046875 -3.4375 4.796875 -3.390625 3.5625 -3.21875 C 2.328125 -3.03125 1.8125 -2.703125 1.8125 -1.9375 C 1.8125 -1.140625 2.34375 -0.8125 3.25 -0.8125 C 4.375 -0.8125 5.453125 -1.484375 5.453125 -2.53125 Z M 5.453125 -2.53125 "/>
</g>
<g id="glyph-0-8-e08684cc">
<path d="M 6.84375 -1.203125 C 6.84375 2.03125 5.859375 3.046875 3.5625 3.046875 C 1.84375 3.046875 0.765625 2.21875 0.640625 0.84375 C 0.640625 0.84375 1.828125 0.84375 1.828125 0.84375 C 1.96875 1.734375 2.6875 2.078125 3.609375 2.078125 C 4.96875 2.078125 5.765625 1.328125 5.765625 -0.609375 C 5.765625 -0.609375 5.765625 -1.109375 5.765625 -1.109375 C 5 -0.1875 4.359375 0.203125 3.4375 0.203125 C 1.703125 0.203125 0.40625 -1.28125 0.40625 -3.59375 C 0.40625 -5.984375 1.671875 -7.546875 3.53125 -7.546875 C 4.46875 -7.546875 5.1875 -7.140625 5.765625 -6.265625 C 5.765625 -6.265625 5.765625 -7.34375 5.765625 -7.34375 C 5.765625 -7.34375 6.84375 -7.34375 6.84375 -7.34375 C 6.84375 -7.34375 6.84375 -1.203125 6.84375 -1.203125 Z M 5.65625 -3.625 C 5.65625 -5.40625 4.90625 -6.46875 3.65625 -6.46875 C 2.40625 -6.46875 1.625 -5.4375 1.625 -3.671875 C 1.625 -1.890625 2.390625 -0.875 3.671875 -0.875 C 4.90625 -0.875 5.65625 -1.875 5.65625 -3.625 Z M 5.65625 -3.625 "/>
</g>
<g id="glyph-0-9-e08684cc">
<path d="M 7.1875 -3.078125 C 7.1875 -1.140625 5.828125 0.203125 3.9375 0.203125 C 1.671875 0.203125 0.609375 -1.421875 0.609375 -4.515625 C 0.609375 -7.984375 1.84375 -9.921875 4.15625 -9.921875 C 5.671875 -9.921875 6.734375 -8.953125 6.96875 -7.34375 C 6.96875 -7.34375 5.734375 -7.34375 5.734375 -7.34375 C 5.546875 -8.28125 4.9375 -8.828125 4.078125 -8.828125 C 2.65625 -8.828125 1.875 -7.484375 1.859375 -5.0625 C 2.390625 -5.796875 3.15625 -6.171875 4.140625 -6.171875 C 5.921875 -6.171875 7.1875 -4.921875 7.1875 -3.078125 Z M 5.921875 -2.984375 C 5.921875 -4.3125 5.1875 -5.078125 3.984375 -5.078125 C 2.765625 -5.078125 1.9375 -4.28125 1.9375 -3.046875 C 1.9375 -1.78125 2.796875 -0.875 3.953125 -0.875 C 5.078125 -0.875 5.921875 -1.734375 5.921875 -2.984375 Z M 5.921875 -2.984375 "/>
</g>
<g id="glyph-0-10-e08684cc">
<path d="M 7.09375 -4.78125 C 7.09375 -1.515625 5.953125 0.203125 3.84375 0.203125 C 1.71875 0.203125 0.609375 -1.515625 0.609375 -4.859375 C 0.609375 -8.1875 1.703125 -9.921875 3.84375 -9.921875 C 6 -9.921875 7.09375 -8.21875 7.09375 -4.78125 Z M 5.84375 -4.890625 C 5.84375 -7.546875 5.1875 -8.828125 3.84375 -8.828125 C 2.515625 -8.828125 1.859375 -7.5625 1.859375 -4.84375 C 1.859375 -2.125 2.515625 -0.8125 3.828125 -0.8125 C 5.1875 -0.8125 5.84375 -2.078125 5.84375 -4.890625 Z M 5.84375 -4.890625 "/>
</g>
<g id="glyph-0-11-e08684cc">
<path d="M 7.1875 -3.296875 C 7.1875 -1.1875 5.78125 0.203125 3.78125 0.203125 C 2.015625 0.203125 0.890625 -0.578125 0.484375 -2.546875 C 0.484375 -2.546875 1.71875 -2.546875 1.71875 -2.546875 C 2.015625 -1.421875 2.671875 -0.875 3.75 -0.875 C 5.09375 -0.875 5.921875 -1.6875 5.921875 -3.125 C 5.921875 -4.59375 5.078125 -5.453125 3.75 -5.453125 C 2.984375 -5.453125 2.5 -5.203125 1.9375 -4.515625 C 1.9375 -4.515625 0.796875 -4.515625 0.796875 -4.515625 C 0.796875 -4.515625 1.546875 -9.71875 1.546875 -9.71875 C 1.546875 -9.71875 6.65625 -9.71875 6.65625 -9.71875 C 6.65625 -9.71875 6.65625 -8.5 6.65625 -8.5 C 6.65625 -8.5 2.53125 -8.5 2.53125 -8.5 C 2.53125 -8.5 2.140625 -5.9375 2.140625 -5.9375 C 2.71875 -6.359375 3.28125 -6.53125 3.96875 -6.53125 C 5.875 -6.53125 7.1875 -5.25 7.1875 -3.296875 Z M 7.1875 -3.296875 "/>
</g>
<g id="glyph-0-12-e08684cc">
<path d="M 7.28125 -8.6875 C 5.1875 -6.203125 3.796875 -3.203125 3.25 0 C 3.25 0 1.9375 0 1.9375 0 C 2.625 -3.109375 4.03125 -6 6 -8.5 C 6 -8.5 0.640625 -8.5 0.640625 -8.5 C 0.640625 -8.5 0.640625 -9.71875 0.640625 -9.71875 C 0.640625 -9.71875 7.28125 -9.71875 7.28125 -9.71875 C 7.28125 -9.71875 7.28125 -8.6875 7.28125 -8.6875 Z M 7.28125 -8.6875 "/>
</g>
<g id="glyph-0-13-e08684cc">
<path d="M 4.859375 0 C 4.859375 0 3.625 0 3.625 0 C 3.625 0 3.625 -7.0625 3.625 -7.0625 C 3.625 -7.0625 1.421875 -7.0625 1.421875 -7.0625 C 1.421875 -7.0625 1.421875 -7.953125 1.421875 -7.953125 C 3.328125 -8.1875 3.609375 -8.40625 4.046875 -9.921875 C 4.046875 -9.921875 4.859375 -9.921875 4.859375 -9.921875 C 4.859375 -9.921875 4.859375 0 4.859375 0 Z M 4.859375 0 "/>
</g>
<g id="glyph-0-14-e08684cc">
<path d="M 7.15625 -7.015625 C 7.15625 -5.796875 6.4375 -4.765625 5.046875 -4.015625 C 5.046875 -4.015625 3.65625 -3.265625 3.65625 -3.265625 C 2.4375 -2.546875 1.984375 -2.03125 1.859375 -1.21875 C 1.859375 -1.21875 7.078125 -1.21875 7.078125 -1.21875 C 7.078125 -1.21875 7.078125 0 7.078125 0 C 7.078125 0 0.46875 0 0.46875 0 C 0.59375 -2.1875 1.1875 -3.125 3.265625 -4.296875 C 3.265625 -4.296875 4.546875 -5.03125 4.546875 -5.03125 C 5.4375 -5.53125 5.890625 -6.203125 5.890625 -6.984375 C 5.890625 -8.046875 5.046875 -8.84375 3.9375 -8.84375 C 2.71875 -8.84375 2.03125 -8.140625 1.9375 -6.484375 C 1.9375 -6.484375 0.703125 -6.484375 0.703125 -6.484375 C 0.765625 -8.890625 1.953125 -9.921875 3.96875 -9.921875 C 5.859375 -9.921875 7.15625 -8.6875 7.15625 -7.015625 Z M 7.15625 -7.015625 "/>
</g>
<g id="glyph-1-0-e08684cc">
<path d="M 4.5 -6.3125 C 2.6875 -6.28125 2.140625 -5.453125 2.140625 -3.8125 C 2.140625 -3.8125 2.140625 0 2.140625 0 C 2.140625 0 0.984375 0 0.984375 0 C 0.984375 0 0.984375 -7.34375 0.984375 -7.34375 C 0.984375 -7.34375 2.046875 -7.34375 2.046875 -7.34375 C 2.046875 -7.34375 2.046875 -6 2.046875 -6 C 2.71875 -7.09375 3.296875 -7.546875 4.046875 -7.546875 C 4.203125 -7.546875 4.296875 -7.53125 4.5 -7.5 C 4.5 -7.5 4.5 -6.3125 4.5 -6.3125 Z M 4.5 -6.3125 "/>
</g>
<g id="glyph-2-0-e08684cc">
<path d="M -2.796875 -8.6875 C -0.984375 -8.6875 0.25 -7.296875 0.25 -4.703125 C 0.25 -2.296875 -0.90625 -0.671875 -3.3125 -0.671875 C -3.3125 -0.671875 -3.3125 -1.90625 -3.3125 -1.90625 C -1.859375 -1.90625 -0.890625 -2.859375 -0.890625 -4.78125 C -0.890625 -6.546875 -1.546875 -7.390625 -2.671875 -7.390625 C -3.46875 -7.390625 -3.984375 -6.796875 -4.328125 -5.515625 C -4.328125 -5.515625 -5 -2.984375 -5 -2.984375 C -5.34375 -1.640625 -6.125 -0.984375 -7.375 -0.984375 C -9.21875 -0.984375 -10.453125 -2.359375 -10.453125 -4.609375 C -10.453125 -6.953125 -9.296875 -8.34375 -7.296875 -8.34375 C -7.296875 -8.34375 -7.296875 -7.109375 -7.296875 -7.109375 C -8.625 -7.109375 -9.359375 -6.1875 -9.359375 -4.5625 C -9.359375 -3.1875 -8.59375 -2.28125 -7.5625 -2.28125 C -6.78125 -2.28125 -6.375 -2.734375 -6.046875 -3.96875 C -6.046875 -3.96875 -5.359375 -6.53125 -5.359375 -6.53125 C -4.984375 -7.90625 -4.0625 -8.6875 -2.796875 -8.6875 Z M -2.796875 -8.6875 "/>
</g>
<g id="glyph-3-0-e08684cc">
<path d="M 0 -6.796875 C 0 -6.796875 0 -5.640625 0 -5.640625 C 0 -5.640625 -5.078125 -5.640625 -5.078125 -5.640625 C -6.046875 -5.640625 -6.53125 -4.953125 -6.53125 -4.125 C -6.53125 -2.921875 -5.546875 -2.140625 -4.046875 -2.140625 C -4.046875 -2.140625 0 -2.140625 0 -2.140625 C 0 -2.140625 0 -0.984375 0 -0.984375 C 0 -0.984375 -10.203125 -0.984375 -10.203125 -0.984375 C -10.203125 -0.984375 -10.203125 -2.140625 -10.203125 -2.140625 C -10.203125 -2.140625 -6.328125 -2.140625 -6.328125 -2.140625 C -7.21875 -2.828125 -7.546875 -3.453125 -7.546875 -4.5 C -7.546875 -5.921875 -6.78125 -6.796875 -5.546875 -6.796875 C -5.546875 -6.796875 0 -6.796875 0 -6.796875 Z M 0 -6.796875 "/>
</g>
<g id="glyph-3-1-e08684cc">
</g>
<g id="glyph-3-2-e08684cc">
<path d="M -3.609375 -3.578125 C -1.40625 -3.578125 1.140625 -2.703125 2.96875 -1.296875 C 2.96875 -1.296875 2.96875 -0.53125 2.96875 -0.53125 C 0.984375 -1.765625 -1.390625 -2.453125 -3.609375 -2.453125 C -5.859375 -2.453125 -8.203125 -1.765625 -10.203125 -0.53125 C -10.203125 -0.53125 -10.203125 -1.296875 -10.203125 -1.296875 C -8.375 -2.703125 -5.828125 -3.578125 -3.609375 -3.578125 Z M -3.609375 -3.578125 "/>
</g>
<g id="glyph-4-0-e08684cc">
<path d="M -0.03125 -7.484375 C 0.0625 -7.109375 0.09375 -6.9375 0.09375 -6.6875 C 0.09375 -6.125 -0.3125 -5.609375 -0.875 -5.484375 C -0.1875 -4.84375 0.203125 -3.9375 0.203125 -3 C 0.203125 -1.515625 -0.578125 -0.59375 -1.90625 -0.59375 C -2.796875 -0.59375 -3.453125 -1.015625 -3.8125 -1.875 C -3.984375 -2.328125 -4.046875 -2.578125 -4.25 -4.234375 C -4.375 -5.15625 -4.578125 -5.453125 -5.0625 -5.453125 C -5.0625 -5.453125 -5.375 -5.453125 -5.375 -5.453125 C -6.078125 -5.453125 -6.46875 -4.859375 -6.46875 -3.8125 C -6.46875 -2.71875 -6.0625 -2.1875 -5.171875 -2.09375 C -5.171875 -2.09375 -5.171875 -0.90625 -5.171875 -0.90625 C -6.859375 -0.984375 -7.546875 -2.078125 -7.546875 -3.84375 C -7.546875 -5.65625 -6.84375 -6.609375 -5.546875 -6.609375 C -5.546875 -6.609375 -1.453125 -6.609375 -1.453125 -6.609375 C -1.09375 -6.609375 -0.875 -6.828125 -0.875 -7.234375 C -0.875 -7.3125 -0.875 -7.359375 -0.90625 -7.484375 C -0.90625 -7.484375 -0.03125 -7.484375 -0.03125 -7.484375 Z M -2.53125 -5.453125 C -2.53125 -5.453125 -3.625 -5.453125 -3.625 -5.453125 C -3.4375 -5.046875 -3.390625 -4.796875 -3.21875 -3.5625 C -3.03125 -2.328125 -2.703125 -1.8125 -1.9375 -1.8125 C -1.140625 -1.8125 -0.8125 -2.34375 -0.8125 -3.25 C -0.8125 -4.375 -1.484375 -5.453125 -2.53125 -5.453125 Z M -2.53125 -5.453125 "/>
</g>
<g id="glyph-4-1-e08684cc">
<path d="M -3.328125 -7.1875 C -3.328125 -7.1875 -3.328125 -1.78125 -3.328125 -1.78125 C -1.65625 -1.8125 -0.875 -2.71875 -0.875 -3.9375 C -0.875 -4.875 -1.265625 -5.53125 -2.21875 -5.859375 C -2.21875 -5.859375 -2.21875 -7.03125 -2.21875 -7.03125 C -0.734375 -6.734375 0.203125 -5.578125 0.203125 -3.890625 C 0.203125 -1.828125 -1.21875 -0.5625 -3.625 -0.5625 C -6.03125 -0.5625 -7.546875 -1.875 -7.546875 -3.921875 C -7.546875 -5.296875 -6.8125 -6.40625 -5.609375 -6.890625 C -5.0625 -7.09375 -4.390625 -7.1875 -3.328125 -7.1875 Z M -4.375 -5.9375 C -5.515625 -5.9375 -6.46875 -5.046875 -6.46875 -3.90625 C -6.46875 -2.734375 -5.59375 -1.90625 -4.28125 -1.8125 C -4.28125 -1.8125 -4.28125 -5.921875 -4.28125 -5.921875 C -4.3125 -5.9375 -4.375 -5.9375 -4.375 -5.9375 Z M -4.375 -5.9375 "/>
</g>
<g id="glyph-5-0-e08684cc">
<path d="M -6.3125 -4.5 C -6.28125 -2.6875 -5.453125 -2.140625 -3.8125 -2.140625 C -3.8125 -2.140625 0 -2.140625 0 -2.140625 C 0 -2.140625 0 -0.984375 0 -0.984375 C 0 -0.984375 -7.34375 -0.984375 -7.34375 -0.984375 C -7.34375 -0.984375 -7.34375 -2.046875 -7.34375 -2.046875 C -7.34375 -2.046875 -6 -2.046875 -6 -2.046875 C -7.09375 -2.71875 -7.546875 -3.296875 -7.546875 -4.046875 C -7.546875 -4.203125 -7.53125 -4.296875 -7.5 -4.5 C -7.5 -4.5 -6.3125 -4.5 -6.3125 -4.5 Z M -6.3125 -4.5 "/>
</g>
<g id="glyph-6-0-e08684cc">
<path d="M -3.328125 -7.1875 C -3.328125 -7.1875 -3.328125 -1.78125 -3.328125 -1.78125 C -1.65625 -1.8125 -0.875 -2.71875 -0.875 -3.9375 C -0.875 -4.875 -1.265625 -5.53125 -2.21875 -5.859375 C -2.21875 -5.859375 -2.21875 -7.03125 -2.21875 -7.03125 C -0.734375 -6.734375 0.203125 -5.578125 0.203125 -3.890625 C 0.203125 -1.828125 -1.21875 -0.5625 -3.625 -0.5625 C -6.03125 -0.5625 -7.546875 -1.875 -7.546875 -3.921875 C -7.546875 -5.296875 -6.8125 -6.40625 -5.609375 -6.890625 C -5.0625 -7.09375 -4.390625 -7.1875 -3.328125 -7.1875 Z M -4.375 -5.9375 C -5.515625 -5.9375 -6.46875 -5.046875 -6.46875 -3.90625 C -6.46875 -2.734375 -5.59375 -1.90625 -4.28125 -1.8125 C -4.28125 -1.8125 -4.28125 -5.921875 -4.28125 -5.921875 C -4.3125 -5.9375 -4.375 -5.9375 -4.375 -5.9375 Z M -4.375 -5.9375 "/>
</g>
<g id="glyph-7-0-e08684cc">
</g>
<g id="glyph-8-0-e08684cc">
<path d="M -3.609375 -7.140625 C -1.203125 -7.140625 0.203125 -5.875 0.203125 -3.828125 C 0.203125 -1.734375 -1.203125 -0.5 -3.671875 -0.5 C -6.125 -0.5 -7.546875 -1.75 -7.546875 -3.8125 C -7.546875 -5.921875 -6.140625 -7.140625 -3.609375 -7.140625 Z M -3.625 -5.921875 C -5.453125 -5.921875 -6.46875 -5.140625 -6.46875 -3.828125 C -6.46875 -2.515625 -5.4375 -1.71875 -3.671875 -1.71875 C -1.890625 -1.71875 -0.875 -2.515625 -0.875 -3.828125 C -0.875 -5.109375 -1.90625 -5.921875 -3.625 -5.921875 Z M -3.625 -5.921875 "/>
</g>
<g id="glyph-9-0-e08684cc">
<path d="M -6.390625 -3.609375 C -6.390625 -3.609375 -6.390625 -2.390625 -6.390625 -2.390625 C -6.390625 -2.390625 0 -2.390625 0 -2.390625 C 0 -2.390625 0 -1.234375 0 -1.234375 C 0 -1.234375 -6.390625 -1.234375 -6.390625 -1.234375 C -6.390625 -1.234375 -6.390625 -0.25 -6.390625 -0.25 C -6.390625 -0.25 -7.34375 -0.25 -7.34375 -0.25 C -7.34375 -0.25 -7.34375 -1.234375 -7.34375 -1.234375 C -7.34375 -1.234375 -8.578125 -1.234375 -8.578125 -1.234375 C -9.625 -1.234375 -10.25 -1.875 -10.25 -2.953125 C -10.25 -3.1875 -10.234375 -3.34375 -10.171875 -3.609375 C -10.171875 -3.609375 -9.21875 -3.609375 -9.21875 -3.609375 C -9.21875 -3.34375 -9.21875 -3.296875 -9.21875 -3.203125 C -9.21875 -2.671875 -8.96875 -2.390625 -8.484375 -2.390625 C -8.484375 -2.390625 -7.34375 -2.390625 -7.34375 -2.390625 C -7.34375 -2.390625 -7.34375 -3.609375 -7.34375 -3.609375 C -7.34375 -3.609375 -6.390625 -3.609375 -6.390625 -3.609375 Z M -6.390625 -3.609375 "/>
</g>
<g id="glyph-9-1-e08684cc">
<path d="M -7.171875 -5.1875 C -5.875 -5.1875 -4.796875 -4.109375 -4.796875 -2.796875 C -4.796875 -1.484375 -5.875 -0.40625 -7.203125 -0.40625 C -8.515625 -0.40625 -9.59375 -1.484375 -9.59375 -2.78125 C -9.59375 -4.125 -8.53125 -5.1875 -7.171875 -5.1875 Z M -7.1875 -4.21875 C -7.984375 -4.21875 -8.609375 -3.578125 -8.609375 -2.78125 C -8.609375 -2.015625 -7.984375 -1.375 -7.203125 -1.375 C -6.421875 -1.375 -5.78125 -2.015625 -5.78125 -2.796875 C -5.78125 -3.5625 -6.40625 -4.21875 -7.1875 -4.21875 Z M -9.921875 -9.453125 C -9.921875 -9.453125 0.28125 -3.921875 0.28125 -3.921875 C 0.28125 -3.921875 0.28125 -3 0.28125 -3 C 0.28125 -3 -9.921875 -8.53125 -9.921875 -8.53125 C -9.921875 -8.53125 -9.921875 -9.453125 -9.921875 -9.453125 Z M -2.09375 -12.03125 C -0.8125 -12.03125 0.265625 -10.9375 0.265625 -9.640625 C 0.265625 -8.328125 -0.8125 -7.25 -2.125 -7.25 C -3.4375 -7.25 -4.515625 -8.328125 -4.515625 -9.625 C -4.515625 -10.96875 -3.4375 -12.03125 -2.09375 -12.03125 Z M -2.09375 -11.0625 C -2.890625 -11.0625 -3.53125 -10.4375 -3.53125 -9.625 C -3.53125 -8.859375 -2.890625 -8.21875 -2.125 -8.21875 C -1.34375 -8.21875 -0.71875 -8.859375 -0.71875 -9.640625 C -0.71875 -10.421875 -1.34375 -11.0625 -2.09375 -11.0625 Z M -2.09375 -11.0625 "/>
</g>
<g id="glyph-10-0-e08684cc">
<path d="M -6.3125 -4.5 C -6.28125 -2.6875 -5.453125 -2.140625 -3.8125 -2.140625 C -3.8125 -2.140625 0 -2.140625 0 -2.140625 C 0 -2.140625 0 -0.984375 0 -0.984375 C 0 -0.984375 -7.34375 -0.984375 -7.34375 -0.984375 C -7.34375 -0.984375 -7.34375 -2.046875 -7.34375 -2.046875 C -7.34375 -2.046875 -6 -2.046875 -6 -2.046875 C -7.09375 -2.71875 -7.546875 -3.296875 -7.546875 -4.046875 C -7.546875 -4.203125 -7.53125 -4.296875 -7.5 -4.5 C -7.5 -4.5 -6.3125 -4.5 -6.3125 -4.5 Z M -6.3125 -4.5 "/>
</g>
<g id="glyph-11-0-e08684cc">
<path d="M 0 -3.5625 C 0.0625 -3.15625 0.09375 -2.890625 0.09375 -2.609375 C 0.09375 -1.6875 -0.328125 -1.1875 -1.0625 -1.1875 C -1.0625 -1.1875 -6.390625 -1.1875 -6.390625 -1.1875 C -6.390625 -1.1875 -6.390625 -0.203125 -6.390625 -0.203125 C -6.390625 -0.203125 -7.34375 -0.203125 -7.34375 -0.203125 C -7.34375 -0.203125 -7.34375 -1.1875 -7.34375 -1.1875 C -7.34375 -1.1875 -9.359375 -1.1875 -9.359375 -1.1875 C -9.359375 -1.1875 -9.359375 -2.359375 -9.359375 -2.359375 C -9.359375 -2.359375 -7.34375 -2.359375 -7.34375 -2.359375 C -7.34375 -2.359375 -7.34375 -3.5625 -7.34375 -3.5625 C -7.34375 -3.5625 -6.390625 -3.5625 -6.390625 -3.5625 C -6.390625 -3.5625 -6.390625 -2.359375 -6.390625 -2.359375 C -6.390625 -2.359375 -1.578125 -2.359375 -1.578125 -2.359375 C -1.0625 -2.359375 -0.921875 -2.484375 -0.921875 -3 C -0.921875 -3.21875 -0.9375 -3.40625 -0.984375 -3.5625 C -0.984375 -3.5625 0 -3.5625 0 -3.5625 Z M 0 -3.5625 "/>
</g>
<g id="glyph-12-0-e08684cc">
<path d="M 0 -2.140625 C 0 -2.140625 0 -0.984375 0 -0.984375 C 0 -0.984375 -7.34375 -0.984375 -7.34375 -0.984375 C -7.34375 -0.984375 -7.34375 -2.140625 -7.34375 -2.140625 C -7.34375 -2.140625 0 -2.140625 0 -2.140625 Z M -8.4375 -2.296875 C -8.4375 -2.296875 -8.4375 -0.84375 -8.4375 -0.84375 C -8.4375 -0.84375 -9.890625 -0.84375 -9.890625 -0.84375 C -9.890625 -0.84375 -9.890625 -2.296875 -9.890625 -2.296875 C -9.890625 -2.296875 -8.4375 -2.296875 -8.4375 -2.296875 Z M -8.4375 -2.296875 "/>
</g>
<g id="glyph-13-0-e08684cc">
<path d="M -6.3125 -4.5 C -6.28125 -2.6875 -5.453125 -2.140625 -3.8125 -2.140625 C -3.8125 -2.140625 0 -2.140625 0 -2.140625 C 0 -2.140625 0 -0.984375 0 -0.984375 C 0 -0.984375 -7.34375 -0.984375 -7.34375 -0.984375 C -7.34375 -0.984375 -7.34375 -2.046875 -7.34375 -2.046875 C -7.34375 -2.046875 -6 -2.046875 -6 -2.046875 C -7.09375 -2.71875 -7.546875 -3.296875 -7.546875 -4.046875 C -7.546875 -4.203125 -7.53125 -4.296875 -7.5 -4.5 C -7.5 -4.5 -6.3125 -4.5 -6.3125 -4.5 Z M -6.3125 -4.5 "/>
</g>
<g id="glyph-14-0-e08684cc">
<path d="M -3.328125 -7.1875 C -3.328125 -7.1875 -3.328125 -1.78125 -3.328125 -1.78125 C -1.65625 -1.8125 -0.875 -2.71875 -0.875 -3.9375 C -0.875 -4.875 -1.265625 -5.53125 -2.21875 -5.859375 C -2.21875 -5.859375 -2.21875 -7.03125 -2.21875 -7.03125 C -0.734375 -6.734375 0.203125 -5.578125 0.203125 -3.890625 C 0.203125 -1.828125 -1.21875 -0.5625 -3.625 -0.5625 C -6.03125 -0.5625 -7.546875 -1.875 -7.546875 -3.921875 C -7.546875 -5.296875 -6.8125 -6.40625 -5.609375 -6.890625 C -5.0625 -7.09375 -4.390625 -7.1875 -3.328125 -7.1875 Z M -4.375 -5.9375 C -5.515625 -5.9375 -6.46875 -5.046875 -6.46875 -3.90625 C -6.46875 -2.734375 -5.59375 -1.90625 -4.28125 -1.8125 C -4.28125 -1.8125 -4.28125 -5.921875 -4.28125 -5.921875 C -4.3125 -5.9375 -4.375 -5.9375 -4.375 -5.9375 Z M -4.375 -5.9375 "/>
</g>
<g id="glyph-15-0-e08684cc">
<path d="M 0 -10.640625 C 0 -10.640625 0 -9.484375 0 -9.484375 C 0 -9.484375 -5.046875 -9.484375 -5.046875 -9.484375 C -5.984375 -9.484375 -6.53125 -8.984375 -6.53125 -8.140625 C -6.53125 -7.1875 -5.671875 -6.390625 -4.609375 -6.390625 C -4.609375 -6.390625 0 -6.390625 0 -6.390625 C 0 -6.390625 0 -5.234375 0 -5.234375 C 0 -5.234375 -5.046875 -5.234375 -5.046875 -5.234375 C -5.984375 -5.234375 -6.53125 -4.75 -6.53125 -3.875 C -6.53125 -2.921875 -5.671875 -2.15625 -4.609375 -2.15625 C -4.609375 -2.15625 0 -2.15625 0 -2.15625 C 0 -2.15625 0 -1 0 -1 C 0 -1 -7.34375 -1 -7.34375 -1 C -7.34375 -1 -7.34375 -2.0625 -7.34375 -2.0625 C -7.34375 -2.0625 -6.296875 -2.0625 -6.296875 -2.0625 C -7.1875 -2.6875 -7.546875 -3.328125 -7.546875 -4.3125 C -7.546875 -5.265625 -7.203125 -5.859375 -6.421875 -6.28125 C -7.25 -6.96875 -7.546875 -7.5625 -7.546875 -8.546875 C -7.546875 -9.90625 -6.8125 -10.640625 -5.5 -10.640625 C -5.5 -10.640625 0 -10.640625 0 -10.640625 Z M 0 -10.640625 "/>
</g>
<g id="glyph-16-0-e08684cc">
<path d="M -3.328125 -7.1875 C -3.328125 -7.1875 -3.328125 -1.78125 -3.328125 -1.78125 C -1.65625 -1.8125 -0.875 -2.71875 -0.875 -3.9375 C -0.875 -4.875 -1.265625 -5.53125 -2.21875 -5.859375 C -2.21875 -5.859375 -2.21875 -7.03125 -2.21875 -7.03125 C -0.734375 -6.734375 0.203125 -5.578125 0.203125 -3.890625 C 0.203125 -1.828125 -1.21875 -0.5625 -3.625 -0.5625 C -6.03125 -0.5625 -7.546875 -1.875 -7.546875 -3.921875 C -7.546875 -5.296875 -6.8125 -6.40625 -5.609375 -6.890625 C -5.0625 -7.09375 -4.390625 -7.1875 -3.328125 -7.1875 Z M -4.375 -5.9375 C -5.515625 -5.9375 -6.46875 -5.046875 -6.46875 -3.90625 C -6.46875 -2.734375 -5.59375 -1.90625 -4.28125 -1.8125 C -4.28125 -1.8125 -4.28125 -5.921875 -4.28125 -5.921875 C -4.3125 -5.9375 -4.375 -5.9375 -4.375 -5.9375 Z M -4.375 -5.9375 "/>
</g>
<g id="glyph-16-1-e08684cc">
<path d="M 0 -6.8125 C 0 -6.8125 0 -5.65625 0 -5.65625 C 0 -5.65625 -5.078125 -5.65625 -5.078125 -5.65625 C -5.96875 -5.65625 -6.53125 -5.0625 -6.53125 -4.140625 C -6.53125 -2.953125 -5.546875 -2.140625 -4.046875 -2.140625 C -4.046875 -2.140625 0 -2.140625 0 -2.140625 C 0 -2.140625 0 -0.984375 0 -0.984375 C 0 -0.984375 -7.34375 -0.984375 -7.34375 -0.984375 C -7.34375 -0.984375 -7.34375 -2.0625 -7.34375 -2.0625 C -7.34375 -2.0625 -6.109375 -2.0625 -6.109375 -2.0625 C -7.125 -2.703125 -7.546875 -3.40625 -7.546875 -4.5 C -7.546875 -5.90625 -6.765625 -6.8125 -5.546875 -6.8125 C -5.546875 -6.8125 0 -6.8125 0 -6.8125 Z M 0 -6.8125 "/>
</g>
<g id="glyph-17-0-e08684cc">
<path d="M 0 -6.8125 C 0 -6.8125 0 -5.65625 0 -5.65625 C 0 -5.65625 -5.078125 -5.65625 -5.078125 -5.65625 C -5.96875 -5.65625 -6.53125 -5.0625 -6.53125 -4.140625 C -6.53125 -2.953125 -5.546875 -2.140625 -4.046875 -2.140625 C -4.046875 -2.140625 0 -2.140625 0 -2.140625 C 0 -2.140625 0 -0.984375 0 -0.984375 C 0 -0.984375 -7.34375 -0.984375 -7.34375 -0.984375 C -7.34375 -0.984375 -7.34375 -2.0625 -7.34375 -2.0625 C -7.34375 -2.0625 -6.109375 -2.0625 -6.109375 -2.0625 C -7.125 -2.703125 -7.546875 -3.40625 -7.546875 -4.5 C -7.546875 -5.90625 -6.765625 -6.8125 -5.546875 -6.8125 C -5.546875 -6.8125 0 -6.8125 0 -6.8125 Z M 0 -6.8125 "/>
</g>
<g id="glyph-18-0-e08684cc">
<path d="M 0 -3.5625 C 0.0625 -3.15625 0.09375 -2.890625 0.09375 -2.609375 C 0.09375 -1.6875 -0.328125 -1.1875 -1.0625 -1.1875 C -1.0625 -1.1875 -6.390625 -1.1875 -6.390625 -1.1875 C -6.390625 -1.1875 -6.390625 -0.203125 -6.390625 -0.203125 C -6.390625 -0.203125 -7.34375 -0.203125 -7.34375 -0.203125 C -7.34375 -0.203125 -7.34375 -1.1875 -7.34375 -1.1875 C -7.34375 -1.1875 -9.359375 -1.1875 -9.359375 -1.1875 C -9.359375 -1.1875 -9.359375 -2.359375 -9.359375 -2.359375 C -9.359375 -2.359375 -7.34375 -2.359375 -7.34375 -2.359375 C -7.34375 -2.359375 -7.34375 -3.5625 -7.34375 -3.5625 C -7.34375 -3.5625 -6.390625 -3.5625 -6.390625 -3.5625 C -6.390625 -3.5625 -6.390625 -2.359375 -6.390625 -2.359375 C -6.390625 -2.359375 -1.578125 -2.359375 -1.578125 -2.359375 C -1.0625 -2.359375 -0.921875 -2.484375 -0.921875 -3 C -0.921875 -3.21875 -0.9375 -3.40625 -0.984375 -3.5625 C -0.984375 -3.5625 0 -3.5625 0 -3.5625 Z M 0 -3.5625 "/>
</g>
<g id="glyph-18-1-e08684cc">
<path d="M -3.328125 -7.1875 C -3.328125 -7.1875 -3.328125 -1.78125 -3.328125 -1.78125 C -1.65625 -1.8125 -0.875 -2.71875 -0.875 -3.9375 C -0.875 -4.875 -1.265625 -5.53125 -2.21875 -5.859375 C -2.21875 -5.859375 -2.21875 -7.03125 -2.21875 -7.03125 C -0.734375 -6.734375 0.203125 -5.578125 0.203125 -3.890625 C 0.203125 -1.828125 -1.21875 -0.5625 -3.625 -0.5625 C -6.03125 -0.5625 -7.546875 -1.875 -7.546875 -3.921875 C -7.546875 -5.296875 -6.8125 -6.40625 -5.609375 -6.890625 C -5.0625 -7.09375 -4.390625 -7.1875 -3.328125 -7.1875 Z M -4.375 -5.9375 C -5.515625 -5.9375 -6.46875 -5.046875 -6.46875 -3.90625 C -6.46875 -2.734375 -5.59375 -1.90625 -4.28125 -1.8125 C -4.28125 -1.8125 -4.28125 -5.921875 -4.28125 -5.921875 C -4.3125 -5.9375 -4.375 -5.9375 -4.375 -5.9375 Z M -4.375 -5.9375 "/>
</g>
<g id="glyph-19-0-e08684cc">
</g>
<g id="glyph-19-1-e08684cc">
<path d="M 2.96875 -4.078125 C 2.96875 -4.078125 2.96875 -3.296875 2.96875 -3.296875 C 1.140625 -1.90625 -1.40625 -1.015625 -3.625 -1.015625 C -5.828125 -1.015625 -8.375 -1.90625 -10.203125 -3.296875 C -10.203125 -3.296875 -10.203125 -4.078125 -10.203125 -4.078125 C -8.21875 -2.84375 -5.859375 -2.15625 -3.625 -2.15625 C -1.390625 -2.15625 0.96875 -2.84375 2.96875 -4.078125 Z M 2.96875 -4.078125 "/>
</g>
<g id="glyph-20-0-e08684cc">
<path d="M -7.34375 -6.796875 C -7.34375 -6.796875 0 -3.984375 0 -3.984375 C 0 -3.984375 0 -2.71875 0 -2.71875 C 0 -2.71875 -7.34375 -0.140625 -7.34375 -0.140625 C -7.34375 -0.140625 -7.34375 -1.453125 -7.34375 -1.453125 C -7.34375 -1.453125 -1.390625 -3.421875 -1.390625 -3.421875 C -1.390625 -3.421875 -7.34375 -5.484375 -7.34375 -5.484375 C -7.34375 -5.484375 -7.34375 -6.796875 -7.34375 -6.796875 Z M -7.34375 -6.796875 "/>
</g>
<g id="glyph-21-0-e08684cc">
<path d="M 0 -3.5625 C 0.0625 -3.15625 0.09375 -2.890625 0.09375 -2.609375 C 0.09375 -1.6875 -0.328125 -1.1875 -1.0625 -1.1875 C -1.0625 -1.1875 -6.390625 -1.1875 -6.390625 -1.1875 C -6.390625 -1.1875 -6.390625 -0.203125 -6.390625 -0.203125 C -6.390625 -0.203125 -7.34375 -0.203125 -7.34375 -0.203125 C -7.34375 -0.203125 -7.34375 -1.1875 -7.34375 -1.1875 C -7.34375 -1.1875 -9.359375 -1.1875 -9.359375 -1.1875 C -9.359375 -1.1875 -9.359375 -2.359375 -9.359375 -2.359375 C -9.359375 -2.359375 -7.34375 -2.359375 -7.34375 -2.359375 C -7.34375 -2.359375 -7.34375 -3.5625 -7.34375 -3.5625 C -7.34375 -3.5625 -6.390625 -3.5625 -6.390625 -3.5625 C -6.390625 -3.5625 -6.390625 -2.359375 -6.390625 -2.359375 C -6.390625 -2.359375 -1.578125 -2.359375 -1.578125 -2.359375 C -1.0625 -2.359375 -0.921875 -2.484375 -0.921875 -3 C -0.921875 -3.21875 -0.9375 -3.40625 -0.984375 -3.5625 C -0.984375 -3.5625 0 -3.5625 0 -3.5625 Z M 0 -3.5625 "/>
</g>
<g id="glyph-22-0-e08684cc">
<path d="M -2.0625 -6.421875 C -0.640625 -6.421875 0.203125 -5.25 0.203125 -3.40625 C 0.203125 -1.484375 -0.546875 -0.53125 -2.234375 -0.46875 C -2.234375 -0.46875 -2.234375 -1.703125 -2.234375 -1.703125 C -1.125 -1.859375 -0.875 -2.453125 -0.875 -3.5 C -0.875 -4.515625 -1.28125 -5.203125 -1.953125 -5.203125 C -2.484375 -5.203125 -2.734375 -4.890625 -2.921875 -4.078125 C -2.921875 -4.078125 -3.1875 -2.984375 -3.1875 -2.984375 C -3.609375 -1.25 -4.15625 -0.65625 -5.3125 -0.65625 C -6.65625 -0.65625 -7.546875 -1.765625 -7.546875 -3.46875 C -7.546875 -5.171875 -6.734375 -6.125 -5.296875 -6.125 C -5.296875 -6.125 -5.296875 -4.90625 -5.296875 -4.90625 C -6.0625 -4.875 -6.46875 -4.375 -6.46875 -3.4375 C -6.46875 -2.484375 -6.03125 -1.875 -5.359375 -1.875 C -4.84375 -1.875 -4.53125 -2.28125 -4.3125 -3.234375 C -4.3125 -3.234375 -4.046875 -4.359375 -4.046875 -4.359375 C -3.703125 -5.8125 -3.15625 -6.421875 -2.0625 -6.421875 Z M -2.0625 -6.421875 "/>
</g>
<g id="glyph-23-0-e08684cc">
</g>
<g id="glyph-24-0-e08684cc">
<path d="M 9.53125 -5.109375 C 9.53125 -3.53125 9.09375 -2.140625 8.28125 -1.1875 C 7.59375 -0.359375 6.625 0 5.0625 0 C 5.0625 0 1.078125 0 1.078125 0 C 1.078125 0 1.078125 -10.203125 1.078125 -10.203125 C 1.078125 -10.203125 5.0625 -10.203125 5.0625 -10.203125 C 6.640625 -10.203125 7.609375 -9.859375 8.28125 -9.03125 C 9.09375 -8.0625 9.53125 -6.671875 9.53125 -5.109375 Z M 7.4375 -5.09375 C 7.4375 -7.34375 6.65625 -8.453125 5.0625 -8.453125 C 5.0625 -8.453125 3.171875 -8.453125 3.171875 -8.453125 C 3.171875 -8.453125 3.171875 -1.75 3.171875 -1.75 C 3.171875 -1.75 5.0625 -1.75 5.0625 -1.75 C 6.65625 -1.75 7.4375 -2.859375 7.4375 -5.09375 Z M 7.4375 -5.09375 "/>
</g>
<g id="glyph-24-1-e08684cc">
<path d="M 2.890625 0 C 2.890625 0 0.9375 0 0.9375 0 C 0.9375 0 0.9375 -7.5625 0.9375 -7.5625 C 0.9375 -7.5625 2.890625 -7.5625 2.890625 -7.5625 C 2.890625 -7.5625 2.890625 0 2.890625 0 Z M 2.921875 -8.46875 C 2.921875 -8.46875 0.96875 -8.46875 0.96875 -8.46875 C 0.96875 -8.46875 0.96875 -10.4375 0.96875 -10.4375 C 0.96875 -10.4375 2.921875 -10.4375 2.921875 -10.4375 C 2.921875 -10.4375 2.921875 -8.46875 2.921875 -8.46875 Z M 2.921875 -8.46875 "/>
</g>
<g id="glyph-24-2-e08684cc">
<path d="M 7.28125 -2.234375 C 7.28125 -0.71875 6.109375 0.125 3.96875 0.125 C 1.6875 0.125 0.46875 -0.734375 0.40625 -2.390625 C 0.40625 -2.390625 2.328125 -2.390625 2.328125 -2.390625 C 2.484375 -1.578125 2.96875 -1.40625 3.859375 -1.40625 C 4.78125 -1.40625 5.3125 -1.59375 5.3125 -2.0625 C 5.3125 -2.265625 5.15625 -2.421875 4.65625 -2.578125 C 4.65625 -2.578125 2.328125 -3.296875 2.328125 -3.296875 C 0.921875 -3.734375 0.671875 -4.234375 0.671875 -5.171875 C 0.671875 -6.71875 1.859375 -7.6875 3.78125 -7.6875 C 5.8125 -7.6875 7.046875 -6.71875 7.0625 -5.125 C 7.0625 -5.125 5.1875 -5.125 5.1875 -5.125 C 5.171875 -5.8125 4.703125 -6.140625 3.765625 -6.140625 C 3.078125 -6.140625 2.625 -5.859375 2.625 -5.453125 C 2.625 -5.140625 2.765625 -5.015625 3.3125 -4.859375 C 3.3125 -4.859375 5.796875 -4.140625 5.796875 -4.140625 C 6.796875 -3.84375 7.28125 -3.203125 7.28125 -2.34375 C 7.28125 -2.34375 7.28125 -2.234375 7.28125 -2.234375 Z M 7.28125 -2.234375 "/>
</g>
<g id="glyph-24-3-e08684cc">
<path d="M 4.21875 0 C 3.859375 0.015625 3.515625 0.0625 3.078125 0.0625 C 1.796875 0.0625 1.15625 -0.4375 1.15625 -1.625 C 1.15625 -1.625 1.15625 -6.109375 1.15625 -6.109375 C 1.15625 -6.109375 0.203125 -6.109375 0.203125 -6.109375 C 0.203125 -6.109375 0.203125 -7.40625 0.203125 -7.40625 C 0.203125 -7.40625 1.15625 -7.40625 1.15625 -7.40625 C 1.15625 -7.40625 1.15625 -9.4375 1.15625 -9.4375 C 1.15625 -9.4375 3.125 -9.4375 3.125 -9.4375 C 3.125 -9.4375 3.125 -7.40625 3.125 -7.40625 C 3.125 -7.40625 4.21875 -7.40625 4.21875 -7.40625 C 4.21875 -7.40625 4.21875 -6.109375 4.21875 -6.109375 C 4.21875 -6.109375 3.125 -6.109375 3.125 -6.109375 C 3.125 -6.109375 3.125 -2.15625 3.125 -2.15625 C 3.125 -1.484375 3.25 -1.328125 3.765625 -1.328125 C 3.90625 -1.328125 4.015625 -1.34375 4.21875 -1.375 C 4.21875 -1.375 4.21875 0 4.21875 0 Z M 4.21875 0 "/>
</g>
<g id="glyph-24-4-e08684cc">
<path d="M 5.1875 -5.6875 C 4.90625 -5.71875 4.78125 -5.734375 4.5625 -5.734375 C 3.421875 -5.734375 2.84375 -5.171875 2.84375 -4.015625 C 2.84375 -4.015625 2.84375 0 2.84375 0 C 2.84375 0 0.875 0 0.875 0 C 0.875 0 0.875 -7.5625 0.875 -7.5625 C 0.875 -7.5625 2.84375 -7.5625 2.84375 -7.5625 C 2.84375 -7.5625 2.84375 -6.078125 2.84375 -6.078125 C 3.265625 -7.09375 4.046875 -7.6875 4.9375 -7.6875 C 5 -7.6875 5.0625 -7.6875 5.1875 -7.671875 C 5.1875 -7.671875 5.1875 -5.6875 5.1875 -5.6875 Z M 5.1875 -5.6875 "/>
</g>
<g id="glyph-24-5-e08684cc">
<path d="M 8.046875 -3.6875 C 8.046875 -1.40625 6.671875 0.125 4.875 0.125 C 3.921875 0.125 3.265625 -0.21875 2.78125 -0.875 C 2.78125 -0.875 2.78125 0 2.78125 0 C 2.78125 0 0.828125 0 0.828125 0 C 0.828125 0 0.828125 -10.203125 0.828125 -10.203125 C 0.828125 -10.203125 2.78125 -10.203125 2.78125 -10.203125 C 2.78125 -10.203125 2.78125 -6.578125 2.78125 -6.578125 C 3.265625 -7.34375 3.9375 -7.6875 4.875 -7.6875 C 6.859375 -7.6875 8.046875 -5.828125 8.046875 -3.6875 Z M 6.09375 -3.765625 C 6.09375 -5.171875 5.40625 -6.046875 4.4375 -6.046875 C 3.453125 -6.046875 2.78125 -5.1875 2.78125 -3.8125 C 2.78125 -2.359375 3.4375 -1.515625 4.4375 -1.515625 C 5.40625 -1.515625 6.09375 -2.390625 6.09375 -3.765625 Z M 6.09375 -3.765625 "/>
</g>
<g id="glyph-24-6-e08684cc">
<path d="M 7.578125 0 C 7.578125 0 5.609375 0 5.609375 0 C 5.609375 0 5.609375 -1 5.609375 -1 C 5.046875 -0.25 4.375 0.125 3.34375 0.125 C 1.734375 0.125 0.8125 -0.828125 0.8125 -2.484375 C 0.8125 -2.484375 0.8125 -7.5625 0.8125 -7.5625 C 0.8125 -7.5625 2.765625 -7.5625 2.765625 -7.5625 C 2.765625 -7.5625 2.765625 -2.890625 2.765625 -2.890625 C 2.765625 -1.984375 3.1875 -1.546875 4.03125 -1.546875 C 4.984375 -1.546875 5.609375 -2.125 5.609375 -3.03125 C 5.609375 -3.03125 5.609375 -7.5625 5.609375 -7.5625 C 5.609375 -7.5625 7.578125 -7.5625 7.578125 -7.5625 C 7.578125 -7.5625 7.578125 0 7.578125 0 Z M 7.578125 0 "/>
</g>
<g id="glyph-24-7-e08684cc">
<path d="M 7.96875 -3.71875 C 7.96875 -1.296875 6.53125 0.125 4.234375 0.125 C 1.90625 0.125 0.484375 -1.28125 0.484375 -3.78125 C 0.484375 -6.265625 1.90625 -7.6875 4.21875 -7.6875 C 6.578125 -7.6875 7.96875 -6.28125 7.96875 -3.71875 Z M 6 -3.75 C 6 -5.234375 5.3125 -6.109375 4.234375 -6.109375 C 3.15625 -6.109375 2.453125 -5.21875 2.453125 -3.78125 C 2.453125 -2.34375 3.15625 -1.453125 4.234375 -1.453125 C 5.28125 -1.453125 6 -2.34375 6 -3.75 Z M 6 -3.75 "/>
</g>
<g id="glyph-24-8-e08684cc">
<path d="M 7.640625 0 C 7.640625 0 5.6875 0 5.6875 0 C 5.6875 0 5.6875 -4.65625 5.6875 -4.65625 C 5.6875 -5.5625 5.265625 -6.015625 4.421875 -6.015625 C 3.46875 -6.015625 2.84375 -5.4375 2.84375 -4.53125 C 2.84375 -4.53125 2.84375 0 2.84375 0 C 2.84375 0 0.875 0 0.875 0 C 0.875 0 0.875 -7.5625 0.875 -7.5625 C 0.875 -7.5625 2.84375 -7.5625 2.84375 -7.5625 C 2.84375 -7.5625 2.84375 -6.46875 2.84375 -6.46875 C 3.40625 -7.3125 4.09375 -7.6875 5.109375 -7.6875 C 6.71875 -7.6875 7.640625 -6.734375 7.640625 -5.0625 C 7.640625 -5.0625 7.640625 0 7.640625 0 Z M 7.640625 0 "/>
</g>
<g id="glyph-24-9-e08684cc">
<path d="M 4.375 -6.109375 C 4.375 -6.109375 3.21875 -6.109375 3.21875 -6.109375 C 3.21875 -6.109375 3.21875 0 3.21875 0 C 3.21875 0 1.265625 0 1.265625 0 C 1.265625 0 1.265625 -6.109375 1.265625 -6.109375 C 1.265625 -6.109375 0.203125 -6.109375 0.203125 -6.109375 C 0.203125 -6.109375 0.203125 -7.40625 0.203125 -7.40625 C 0.203125 -7.40625 1.265625 -7.40625 1.265625 -7.40625 C 1.265625 -7.40625 1.265625 -8.3125 1.265625 -8.3125 C 1.265625 -9.59375 1.890625 -10.203125 3.1875 -10.203125 C 3.453125 -10.203125 3.953125 -10.1875 4.3125 -10.15625 C 4.3125 -10.15625 4.3125 -8.6875 4.3125 -8.6875 C 4.140625 -8.71875 3.921875 -8.734375 3.75 -8.734375 C 3.390625 -8.734375 3.21875 -8.546875 3.21875 -8.140625 C 3.21875 -8.140625 3.21875 -7.40625 3.21875 -7.40625 C 3.21875 -7.40625 4.375 -7.40625 4.375 -7.40625 C 4.375 -7.40625 4.375 -6.109375 4.375 -6.109375 Z M 4.375 -6.109375 "/>
</g>
<g id="glyph-24-10-e08684cc">
</g>
<g id="glyph-24-11-e08684cc">
<path d="M 7.34375 -3.5 C 7.34375 -3.5 7.34375 -3.265625 7.34375 -3.265625 C 7.34375 -3.265625 2.265625 -3.265625 2.265625 -3.265625 C 2.328125 -1.796875 2.90625 -1.375 3.84375 -1.375 C 4.546875 -1.375 5.171875 -1.578125 5.328125 -2.125 C 5.328125 -2.125 7.265625 -2.125 7.265625 -2.125 C 6.828125 -0.640625 5.453125 0.125 3.765625 0.125 C 1.625 0.125 0.3125 -1.265625 0.3125 -3.6875 C 0.3125 -6.21875 1.640625 -7.6875 3.8125 -7.6875 C 6.03125 -7.6875 7.34375 -6.109375 7.34375 -3.5 Z M 5.3125 -4.5625 C 5.203125 -5.640625 4.625 -6.1875 3.78125 -6.1875 C 2.90625 -6.1875 2.421875 -5.609375 2.296875 -4.5625 C 2.296875 -4.5625 5.3125 -4.5625 5.3125 -4.5625 Z M 5.3125 -4.5625 "/>
</g>
<g id="glyph-24-12-e08684cc">
<path d="M 11.53125 0 C 11.53125 0 9.578125 0 9.578125 0 C 9.578125 0 9.578125 -5.046875 9.578125 -5.046875 C 9.578125 -5.640625 9.171875 -6.015625 8.515625 -6.015625 C 7.671875 -6.015625 7.171875 -5.453125 7.171875 -4.53125 C 7.171875 -4.53125 7.171875 0 7.171875 0 C 7.171875 0 5.203125 0 5.203125 0 C 5.203125 0 5.203125 -5.046875 5.203125 -5.046875 C 5.203125 -5.640625 4.796875 -6.015625 4.140625 -6.015625 C 3.296875 -6.015625 2.796875 -5.453125 2.796875 -4.53125 C 2.796875 -4.53125 2.796875 0 2.796875 0 C 2.796875 0 0.84375 0 0.84375 0 C 0.84375 0 0.84375 -7.5625 0.84375 -7.5625 C 0.84375 -7.5625 2.78125 -7.5625 2.78125 -7.5625 C 2.78125 -7.5625 2.78125 -6.625 2.78125 -6.625 C 3.4375 -7.390625 3.984375 -7.6875 4.859375 -7.6875 C 5.796875 -7.6875 6.546875 -7.28125 6.921875 -6.5625 C 7.5 -7.34375 8.171875 -7.6875 9.125 -7.6875 C 10.640625 -7.6875 11.53125 -6.8125 11.53125 -5.34375 C 11.53125 -5.34375 11.53125 0 11.53125 0 Z M 11.53125 0 "/>
</g>
<g id="glyph-24-13-e08684cc">
<path d="M 7.34375 0 C 7.34375 0 5.203125 0 5.203125 0 C 5.03125 -0.21875 4.984375 -0.5625 4.984375 -0.953125 C 4.296875 -0.234375 3.53125 0.125 2.6875 0.125 C 1.421875 0.125 0.390625 -0.578125 0.390625 -2.046875 C 0.390625 -3.421875 1.125 -4.0625 2.625 -4.328125 C 2.625 -4.328125 3.40625 -4.46875 3.40625 -4.46875 C 4.375 -4.640625 4.96875 -4.546875 4.96875 -5.34375 C 4.96875 -5.859375 4.59375 -6.109375 3.84375 -6.109375 C 2.875 -6.109375 2.546875 -5.859375 2.453125 -5.0625 C 2.453125 -5.0625 0.5625 -5.0625 0.5625 -5.0625 C 0.6875 -6.8125 1.75 -7.6875 3.796875 -7.6875 C 5.84375 -7.6875 6.890625 -6.90625 6.890625 -5.359375 C 6.890625 -5.359375 6.890625 -1.15625 6.890625 -1.15625 C 6.890625 -0.765625 6.984375 -0.5625 7.34375 -0.234375 C 7.34375 -0.234375 7.34375 0 7.34375 0 Z M 4.96875 -3.234375 C 4.96875 -3.234375 4.96875 -3.5625 4.96875 -3.5625 C 4.75 -3.453125 4.65625 -3.4375 4.140625 -3.328125 C 4.140625 -3.328125 3.46875 -3.203125 3.46875 -3.203125 C 2.65625 -3.046875 2.359375 -2.84375 2.359375 -2.265625 C 2.359375 -1.703125 2.765625 -1.453125 3.421875 -1.453125 C 4.40625 -1.453125 4.96875 -2.09375 4.96875 -3.234375 Z M 4.96875 -3.234375 "/>
</g>
<g id="glyph-24-14-e08684cc">
<path d="M 7.578125 0.25 C 7.578125 2.03125 6.265625 3.046875 3.96875 3.046875 C 1.90625 3.046875 0.65625 2.140625 0.625 0.90625 C 0.625 0.90625 2.65625 0.90625 2.65625 0.90625 C 2.8125 1.484375 3.296875 1.796875 4.046875 1.796875 C 5.03125 1.796875 5.71875 1.15625 5.71875 0.25 C 5.71875 0.25 5.71875 -0.875 5.71875 -0.875 C 4.984375 -0.140625 4.453125 0.125 3.5625 0.125 C 1.703125 0.125 0.46875 -1.34375 0.46875 -3.703125 C 0.46875 -6.03125 1.8125 -7.6875 3.609375 -7.6875 C 4.484375 -7.6875 5.125 -7.296875 5.71875 -6.390625 C 5.71875 -6.390625 5.71875 -7.5625 5.71875 -7.5625 C 5.71875 -7.5625 7.578125 -7.5625 7.578125 -7.5625 C 7.578125 -7.5625 7.578125 0.25 7.578125 0.25 Z M 5.734375 -3.71875 C 5.734375 -5.125 5.015625 -6.046875 4.03125 -6.046875 C 3.078125 -6.046875 2.4375 -5.15625 2.4375 -3.71875 C 2.4375 -2.359375 3.078125 -1.515625 4 -1.515625 C 5.03125 -1.515625 5.734375 -2.359375 5.734375 -3.71875 Z M 5.734375 -3.71875 "/>
</g>
<g id="glyph-25-0-e08684cc">
</g>
</g>
</defs>
<rect x="-100" y="-52" width="1200" height="624" fill="rgb(100%, 100%, 100%)" fill-opacity="1"/>
<path fill-rule="nonzero" fill="rgb(100%, 100%, 100%)" fill-opacity="1" d="M 62 461 L 984 461 L 984 36 L 62 36 Z M 62 461 "/>
<path fill="none" stroke-width="1" stroke-linecap="butt" stroke-linejoin="miter" stroke="rgb(0%, 0%, 0%)" stroke-opacity="0.12" stroke-miterlimit="1.154701" d="M 62 461 L 62 36 "/>
<path fill="none" stroke-width="1" stroke-linecap="butt" stroke-linejoin="miter" stroke="rgb(0%, 0%, 0%)" stroke-opacity="0.12" stroke-miterlimit="1.154701" d="M 523 461 L 523 36 "/>
<path fill="none" stroke-width="1" stroke-linecap="butt" stroke-linejoin="miter" stroke="rgb(0%, 0%, 0%)" stroke-opacity="0.12" stroke-miterlimit="1.154701" d="M 984 461 L 984 36 "/>
<path fill="none" stroke-width="1" stroke-linecap="butt" stroke-linejoin="miter" stroke="rgb(0%, 0%, 0%)" stroke-opacity="0.12" stroke-miterlimit="1.154701" d="M 62 441.683594 L 984 441.683594 "/>
<path fill="none" stroke-width="1" stroke-linecap="butt" stroke-linejoin="miter" stroke="rgb(0%, 0%, 0%)" stroke-opacity="0.12" stroke-miterlimit="1.154701" d="M 62 281.1875 L 984 281.1875 "/>
<path fill="none" stroke-width="1" stroke-linecap="butt" stroke-linejoin="miter" stroke="rgb(0%, 0%, 0%)" stroke-opacity="0.12" stroke-miterlimit="1.154701" d="M 62 120.691406 L 984 120.691406 "/>
<g fill="rgb(0%, 0%, 0%)" fill-opacity="1">
<use xlink:href="#glyph-0-0-e08684cc" x="475.148029" y="501.568"/>
<use xlink:href="#glyph-0-1-e08684cc" x="485.256027" y="501.568"/>
<use xlink:href="#glyph-0-2-e08684cc" x="493.04003" y="501.568"/>
<use xlink:href="#glyph-0-3-e08684cc" x="496.93203" y="501.568"/>
</g>
<g fill="rgb(0%, 0%, 0%)" fill-opacity="1">
<use xlink:href="#glyph-1-0-e08684cc" x="500.04003" y="501.568"/>
</g>
<g fill="rgb(0%, 0%, 0%)" fill-opacity="1">
<use xlink:href="#glyph-0-1-e08684cc" x="504.702031" y="501.568"/>
<use xlink:href="#glyph-0-4-e08684cc" x="512.486032" y="501.568"/>
<use xlink:href="#glyph-0-1-e08684cc" x="524.148031" y="501.568"/>
<use xlink:href="#glyph-0-5-e08684cc" x="531.932032" y="501.568"/>
<use xlink:href="#glyph-0-2-e08684cc" x="539.716033" y="501.568"/>
<use xlink:href="#glyph-0-6-e08684cc" x="543.608031" y="501.568"/>
<use xlink:href="#glyph-0-7-e08684cc" x="547.50003" y="501.568"/>
<use xlink:href="#glyph-0-8-e08684cc" x="555.284027" y="501.568"/>
<use xlink:href="#glyph-0-1-e08684cc" x="563.068024" y="501.568"/>
</g>
<g fill="rgb(0%, 0%, 0%)" fill-opacity="1">
<use xlink:href="#glyph-0-9-e08684cc" x="54.216003" y="482.258"/>
<use xlink:href="#glyph-0-10-e08684cc" x="62.000003" y="482.258"/>
</g>
<g fill="rgb(0%, 0%, 0%)" fill-opacity="1">
<use xlink:href="#glyph-0-9-e08684cc" x="515.216025" y="482.258"/>
<use xlink:href="#glyph-0-11-e08684cc" x="523.000025" y="482.258"/>
</g>
<g fill="rgb(0%, 0%, 0%)" fill-opacity="1">
<use xlink:href="#glyph-0-12-e08684cc" x="976.216046" y="482.258"/>
<use xlink:href="#glyph-0-10-e08684cc" x="984.000047" y="482.258"/>
</g>
<g fill="rgb(0%, 0%, 0%)" fill-opacity="1">
<use xlink:href="#glyph-2-0-e08684cc" x="28.379995" y="343.811981"/>
</g>
<g fill="rgb(0%, 0%, 0%)" fill-opacity="1">
<use xlink:href="#glyph-3-0-e08684cc" x="28.379996" y="334.473984"/>
</g>
<g fill="rgb(0%, 0%, 0%)" fill-opacity="1">
<use xlink:href="#glyph-4-0-e08684cc" x="28.379996" y="326.689979"/>
</g>
<g fill="rgb(0%, 0%, 0%)" fill-opacity="1">
<use xlink:href="#glyph-5-0-e08684cc" x="28.379996" y="318.905983"/>
</g>
<g fill="rgb(0%, 0%, 0%)" fill-opacity="1">
<use xlink:href="#glyph-6-0-e08684cc" x="28.379997" y="314.24398"/>
</g>
<g fill="rgb(0%, 0%, 0%)" fill-opacity="1">
<use xlink:href="#glyph-7-0-e08684cc" x="28.379997" y="306.459984"/>
</g>
<g fill="rgb(0%, 0%, 0%)" fill-opacity="1">
<use xlink:href="#glyph-8-0-e08684cc" x="28.379997" y="302.567985"/>
</g>
<g fill="rgb(0%, 0%, 0%)" fill-opacity="1">
<use xlink:href="#glyph-9-0-e08684cc" x="28.379998" y="294.783985"/>
</g>
<g fill="rgb(0%, 0%, 0%)" fill-opacity="1">
<use xlink:href="#glyph-3-1-e08684cc" x="28.379998" y="290.891987"/>
</g>
<g fill="rgb(0%, 0%, 0%)" fill-opacity="1">
<use xlink:href="#glyph-10-0-e08684cc" x="28.379998" y="286.999988"/>
</g>
<g fill="rgb(0%, 0%, 0%)" fill-opacity="1">
<use xlink:href="#glyph-4-1-e08684cc" x="28.379999" y="282.33799"/>
</g>
<g fill="rgb(0%, 0%, 0%)" fill-opacity="1">
<use xlink:href="#glyph-11-0-e08684cc" x="28.379999" y="274.553991"/>
</g>
<g fill="rgb(0%, 0%, 0%)" fill-opacity="1">
<use xlink:href="#glyph-12-0-e08684cc" x="28.379999" y="270.661993"/>
</g>
<g fill="rgb(0%, 0%, 0%)" fill-opacity="1">
<use xlink:href="#glyph-13-0-e08684cc" x="28.38" y="267.553991"/>
</g>
<g fill="rgb(0%, 0%, 0%)" fill-opacity="1">
<use xlink:href="#glyph-14-0-e08684cc" x="28.38" y="262.891989"/>
</g>
<g fill="rgb(0%, 0%, 0%)" fill-opacity="1">
<use xlink:href="#glyph-15-0-e08684cc" x="28.38" y="255.107993"/>
</g>
<g fill="rgb(0%, 0%, 0%)" fill-opacity="1">
<use xlink:href="#glyph-16-0-e08684cc" x="28.380001" y="243.445992"/>
</g>
<g fill="rgb(0%, 0%, 0%)" fill-opacity="1">
<use xlink:href="#glyph-17-0-e08684cc" x="28.380001" y="235.661996"/>
</g>
<g fill="rgb(0%, 0%, 0%)" fill-opacity="1">
<use xlink:href="#glyph-18-0-e08684cc" x="28.380002" y="227.878"/>
</g>
<g fill="rgb(0%, 0%, 0%)" fill-opacity="1">
<use xlink:href="#glyph-19-0-e08684cc" x="28.380002" y="223.986002"/>
</g>
<g fill="rgb(0%, 0%, 0%)" fill-opacity="1">
<use xlink:href="#glyph-18-1-e08684cc" x="28.380002" y="220.094003"/>
</g>
<g fill="rgb(0%, 0%, 0%)" fill-opacity="1">
<use xlink:href="#glyph-20-0-e08684cc" x="28.380003" y="212.310009"/>
</g>
<g fill="rgb(0%, 0%, 0%)" fill-opacity="1">
<use xlink:href="#glyph-16-0-e08684cc" x="28.380003" y="205.310009"/>
<use xlink:href="#glyph-16-1-e08684cc" x="28.380004" y="197.526012"/>
</g>
<g fill="rgb(0%, 0%, 0%)" fill-opacity="1">
<use xlink:href="#glyph-21-0-e08684cc" x="28.380004" y="189.742016"/>
</g>
<g fill="rgb(0%, 0%, 0%)" fill-opacity="1">
<use xlink:href="#glyph-22-0-e08684cc" x="28.380005" y="185.850017"/>
</g>
<g fill="rgb(0%, 0%, 0%)" fill-opacity="1">
<use xlink:href="#glyph-23-0-e08684cc" x="28.380005" y="178.850021"/>
</g>
<g fill="rgb(0%, 0%, 0%)" fill-opacity="1">
<use xlink:href="#glyph-19-1-e08684cc" x="28.380005" y="174.958023"/>
</g>
<g fill="rgb(0%, 0%, 0%)" fill-opacity="1">
<use xlink:href="#glyph-9-1-e08684cc" x="28.380006" y="170.29602"/>
</g>
<g fill="rgb(0%, 0%, 0%)" fill-opacity="1">
<use xlink:href="#glyph-3-2-e08684cc" x="28.380006" y="157.850021"/>
</g>
<g fill="rgb(0%, 0%, 0%)" fill-opacity="1">
<use xlink:href="#glyph-0-10-e08684cc" x="44.216002" y="446.784816"/>
</g>
<g fill="rgb(0%, 0%, 0%)" fill-opacity="1">
<use xlink:href="#glyph-0-13-e08684cc" x="36.432002" y="286.290027"/>
<use xlink:href="#glyph-0-10-e08684cc" x="44.216002" y="286.290027"/>
</g>
<g fill="rgb(0%, 0%, 0%)" fill-opacity="1">
<use xlink:href="#glyph-0-14-e08684cc" x="36.432002" y="125.79523"/>
<use xlink:href="#glyph-0-10-e08684cc" x="44.216002" y="125.79523"/>
</g>
<g fill="rgb(0%, 0%, 0%)" fill-opacity="1">
<use xlink:href="#glyph-24-0-e08684cc" x="421.094029" y="28.947999"/>
<use xlink:href="#glyph-24-1-e08684cc" x="431.202032" y="28.947999"/>
<use xlink:href="#glyph-24-2-e08684cc" x="435.09403" y="28.947999"/>
<use xlink:href="#glyph-24-3-e08684cc" x="442.878027" y="28.947999"/>
<use xlink:href="#glyph-24-4-e08684cc" x="447.54003" y="28.947999"/>
<use xlink:href="#glyph-24-1-e08684cc" x="452.986029" y="28.947999"/>
<use xlink:href="#glyph-24-5-e08684cc" x="456.878028" y="28.947999"/>
<use xlink:href="#glyph-24-6-e08684cc" x="465.432033" y="28.947999"/>
<use xlink:href="#glyph-24-3-e08684cc" x="473.986034" y="28.947999"/>
<use xlink:href="#glyph-24-1-e08684cc" x="478.648033" y="28.947999"/>
<use xlink:href="#glyph-24-7-e08684cc" x="482.540031" y="28.947999"/>
<use xlink:href="#glyph-24-8-e08684cc" x="491.094033" y="28.947999"/>
</g>
<g fill="rgb(0%, 0%, 0%)" fill-opacity="1">
<use xlink:href="#glyph-25-0-e08684cc" x="499.648034" y="28.947999"/>
</g>
<g fill="rgb(0%, 0%, 0%)" fill-opacity="1">
<use xlink:href="#glyph-24-7-e08684cc" x="503.540032" y="28.947999"/>
<use xlink:href="#glyph-24-9-e08684cc" x="512.094034" y="28.947999"/>
<use xlink:href="#glyph-24-10-e08684cc" x="516.756037" y="28.947999"/>
<use xlink:href="#glyph-24-4-e08684cc" x="520.648035" y="28.947999"/>
<use xlink:href="#glyph-24-11-e08684cc" x="526.094034" y="28.947999"/>
<use xlink:href="#glyph-24-3-e08684cc" x="533.878031" y="28.947999"/>
<use xlink:href="#glyph-24-1-e08684cc" x="538.540034" y="28.947999"/>
<use xlink:href="#glyph-24-4-e08684cc" x="542.432033" y="28.947999"/>
<use xlink:href="#glyph-24-11-e08684cc" x="547.878032" y="28.947999"/>
<use xlink:href="#glyph-24-12-e08684cc" x="555.662029" y="28.947999"/>
<use xlink:href="#glyph-24-11-e08684cc" x="568.108029" y="28.947999"/>
<use xlink:href="#glyph-24-8-e08684cc" x="575.892026" y="28.947999"/>
<use xlink:href="#glyph-24-3-e08684cc" x="584.446027" y="28.947999"/>
<use xlink:href="#glyph-24-10-e08684cc" x="589.10803" y="28.947999"/>
<use xlink:href="#glyph-24-13-e08684cc" x="593.000028" y="28.947999"/>
<use xlink:href="#glyph-24-14-e08684cc" x="600.784025" y="28.947999"/>
<use xlink:href="#glyph-24-11-e08684cc" x="609.338026" y="28.947999"/>
<use xlink:href="#glyph-24-2-e08684cc" x="617.122023" y="28.947999"/>
</g>
<path fill-rule="nonzero" fill="rgb(100%, 54.901963%, 0%)" fill-opacity="1" d="M 68.085938 441.683594 L 74.355469 441.683594 L 74.355469 424.394531 L 68.085938 424.394531 Z M 68.085938 441.683594 "/>
<path fill-rule="nonzero" fill="rgb(100%, 54.901963%, 0%)" fill-opacity="1" d="M 77.304688 441.683594 L 83.574219 441.683594 L 83.574219 425.996094 L 77.304688 425.996094 Z M 77.304688 441.683594 "/>
<path fill-rule="nonzero" fill="rgb(100%, 54.901963%, 0%)" fill-opacity="1" d="M 86.523438 441.683594 L 92.792969 441.683594 L 92.792969 276.207031 L 86.523438 276.207031 Z M 86.523438 441.683594 "/>
<path fill-rule="nonzero" fill="rgb(100%, 54.901963%, 0%)" fill-opacity="1" d="M 95.746094 441.683594 L 102.015625 441.683594 L 102.015625 76.671875 L 95.746094 76.671875 Z M 95.746094 441.683594 "/>
<path fill-rule="nonzero" fill="rgb(100%, 54.901963%, 0%)" fill-opacity="1" d="M 104.964844 441.683594 L 111.234375 441.683594 L 111.234375 55.320312 L 104.964844 55.320312 Z M 104.964844 441.683594 "/>
<path fill-rule="nonzero" fill="rgb(100%, 54.901963%, 0%)" fill-opacity="1" d="M 114.183594 441.683594 L 120.453125 441.683594 L 120.453125 183.671875 L 114.183594 183.671875 Z M 114.183594 441.683594 "/>
<path fill-rule="nonzero" fill="rgb(100%, 54.901963%, 0%)" fill-opacity="1" d="M 123.40625 441.683594 L 129.675781 441.683594 L 129.675781 280.746094 L 123.40625 280.746094 Z M 123.40625 441.683594 "/>
<path fill-rule="nonzero" fill="rgb(100%, 54.901963%, 0%)" fill-opacity="1" d="M 132.625 441.683594 L 138.894531 441.683594 L 138.894531 347.433594 L 132.625 347.433594 Z M 132.625 441.683594 "/>
<path fill-rule="nonzero" fill="rgb(100%, 54.901963%, 0%)" fill-opacity="1" d="M 141.84375 441.683594 L 148.113281 441.683594 L 148.113281 389.953125 L 141.84375 389.953125 Z M 141.84375 441.683594 "/>
<path fill-rule="nonzero" fill="rgb(100%, 54.901963%, 0%)" fill-opacity="1" d="M 151.066406 441.683594 L 157.335938 441.683594 L 157.335938 413.371094 L 151.066406 413.371094 Z M 151.066406 441.683594 "/>
<path fill-rule="nonzero" fill="rgb(100%, 54.901963%, 0%)" fill-opacity="1" d="M 160.285156 441.683594 L 166.554688 441.683594 L 166.554688 421.652344 L 160.285156 421.652344 Z M 160.285156 441.683594 "/>
<path fill-rule="nonzero" fill="rgb(100%, 54.901963%, 0%)" fill-opacity="1" d="M 169.503906 441.683594 L 175.773438 441.683594 L 175.773438 430.609375 L 169.503906 430.609375 Z M 169.503906 441.683594 "/>
<path fill-rule="nonzero" fill="rgb(100%, 54.901963%, 0%)" fill-opacity="1" d="M 178.726562 441.683594 L 184.996094 441.683594 L 184.996094 433.742188 L 178.726562 433.742188 Z M 178.726562 441.683594 "/>
<path fill-rule="nonzero" fill="rgb(100%, 54.901963%, 0%)" fill-opacity="1" d="M 187.945312 441.683594 L 194.214844 441.683594 L 194.214844 436.738281 L 187.945312 436.738281 Z M 187.945312 441.683594 "/>
<path fill-rule="nonzero" fill="rgb(100%, 54.901963%, 0%)" fill-opacity="1" d="M 197.164062 441.683594 L 203.433594 441.683594 L 203.433594 438.125 L 197.164062 438.125 Z M 197.164062 441.683594 "/>
<path fill-rule="nonzero" fill="rgb(100%, 54.901963%, 0%)" fill-opacity="1" d="M 206.386719 441.683594 L 212.65625 441.683594 L 212.65625 439.019531 L 206.386719 439.019531 Z M 206.386719 441.683594 "/>
<path fill-rule="nonzero" fill="rgb(100%, 54.901963%, 0%)" fill-opacity="1" d="M 215.605469 441.683594 L 221.875 441.683594 L 221.875 439.753906 L 215.605469 439.753906 Z M 215.605469 441.683594 "/>
<path fill-rule="nonzero" fill="rgb(100%, 54.901963%, 0%)" fill-opacity="1" d="M 224.824219 441.683594 L 231.09375 441.683594 L 231.09375 439.890625 L 224.824219 439.890625 Z M 224.824219 441.683594 "/>
<path fill-rule="nonzero" fill="rgb(100%, 54.901963%, 0%)" fill-opacity="1" d="M 234.046875 441.683594 L 240.316406 441.683594 L 240.316406 440.429688 L 234.046875 440.429688 Z M 234.046875 441.683594 "/>
<path fill-rule="nonzero" fill="rgb(100%, 54.901963%, 0%)" fill-opacity="1" d="M 243.265625 441.683594 L 249.535156 441.683594 L 249.535156 440.800781 L 243.265625 440.800781 Z M 243.265625 441.683594 "/>
<path fill-rule="nonzero" fill="rgb(100%, 54.901963%, 0%)" fill-opacity="1" d="M 252.484375 441.683594 L 258.753906 441.683594 L 258.753906 440.746094 L 252.484375 440.746094 Z M 252.484375 441.683594 "/>
<path fill-rule="nonzero" fill="rgb(100%, 54.901963%, 0%)" fill-opacity="1" d="M 261.707031 441.683594 L 267.976562 441.683594 L 267.976562 440.894531 L 261.707031 440.894531 Z M 261.707031 441.683594 "/>
<path fill-rule="nonzero" fill="rgb(100%, 54.901963%, 0%)" fill-opacity="1" d="M 270.925781 441.683594 L 277.195312 441.683594 L 277.195312 441.179688 L 270.925781 441.179688 Z M 270.925781 441.683594 "/>
<path fill-rule="nonzero" fill="rgb(100%, 54.901963%, 0%)" fill-opacity="1" d="M 280.144531 441.683594 L 286.414062 441.683594 L 286.414062 441.109375 L 280.144531 441.109375 Z M 280.144531 441.683594 "/>
<path fill-rule="nonzero" fill="rgb(100%, 54.901963%, 0%)" fill-opacity="1" d="M 289.367188 441.683594 L 295.636719 441.683594 L 295.636719 441.269531 L 289.367188 441.269531 Z M 289.367188 441.683594 "/>
<path fill-rule="nonzero" fill="rgb(100%, 54.901963%, 0%)" fill-opacity="1" d="M 298.585938 441.683594 L 304.855469 441.683594 L 304.855469 441.328125 L 298.585938 441.328125 Z M 298.585938 441.683594 "/>
<path fill-rule="nonzero" fill="rgb(100%, 54.901963%, 0%)" fill-opacity="1" d="M 307.804688 441.683594 L 314.074219 441.683594 L 314.074219 441.433594 L 307.804688 441.433594 Z M 307.804688 441.683594 "/>
<path fill-rule="nonzero" fill="rgb(100%, 54.901963%, 0%)" fill-opacity="1" d="M 317.023438 441.683594 L 323.292969 441.683594 L 323.292969 441.394531 L 317.023438 441.394531 Z M 317.023438 441.683594 "/>
<path fill-rule="nonzero" fill="rgb(100%, 54.901963%, 0%)" fill-opacity="1" d="M 326.246094 441.683594 L 332.515625 441.683594 L 332.515625 441.4375 L 326.246094 441.4375 Z M 326.246094 441.683594 "/>
<path fill-rule="nonzero" fill="rgb(100%, 54.901963%, 0%)" fill-opacity="1" d="M 335.464844 441.683594 L 341.734375 441.683594 L 341.734375 441.457031 L 335.464844 441.457031 Z M 335.464844 441.683594 "/>
<path fill-rule="nonzero" fill="rgb(100%, 54.901963%, 0%)" fill-opacity="1" d="M 344.683594 441.683594 L 350.953125 441.683594 L 350.953125 441.535156 L 344.683594 441.535156 Z M 344.683594 441.683594 "/>
<path fill-rule="nonzero" fill="rgb(100%, 54.901963%, 0%)" fill-opacity="1" d="M 353.90625 441.683594 L 360.175781 441.683594 L 360.175781 441.523438 L 353.90625 441.523438 Z M 353.90625 441.683594 "/>
<path fill-rule="nonzero" fill="rgb(100%, 54.901963%, 0%)" fill-opacity="1" d="M 363.125 441.683594 L 369.394531 441.683594 L 369.394531 441.53125 L 363.125 441.53125 Z M 363.125 441.683594 "/>
<path fill-rule="nonzero" fill="rgb(100%, 54.901963%, 0%)" fill-opacity="1" d="M 372.34375 441.683594 L 378.613281 441.683594 L 378.613281 441.578125 L 372.34375 441.578125 Z M 372.34375 441.683594 "/>
<path fill-rule="nonzero" fill="rgb(100%, 54.901963%, 0%)" fill-opacity="1" d="M 381.566406 441.683594 L 387.835938 441.683594 L 387.835938 441.558594 L 381.566406 441.558594 Z M 381.566406 441.683594 "/>
<path fill-rule="nonzero" fill="rgb(100%, 54.901963%, 0%)" fill-opacity="1" d="M 390.785156 441.683594 L 397.054688 441.683594 L 397.054688 441.640625 L 390.785156 441.640625 Z M 390.785156 441.683594 "/>
<path fill-rule="nonzero" fill="rgb(100%, 54.901963%, 0%)" fill-opacity="1" d="M 400.003906 441.683594 L 406.273438 441.683594 L 406.273438 441.582031 L 400.003906 441.582031 Z M 400.003906 441.683594 "/>
<path fill-rule="nonzero" fill="rgb(100%, 54.901963%, 0%)" fill-opacity="1" d="M 409.226562 441.683594 L 415.496094 441.683594 L 415.496094 441.632812 L 409.226562 441.632812 Z M 409.226562 441.683594 "/>
<path fill-rule="nonzero" fill="rgb(100%, 54.901963%, 0%)" fill-opacity="1" d="M 418.445312 441.683594 L 424.714844 441.683594 L 424.714844 441.605469 L 418.445312 441.605469 Z M 418.445312 441.683594 "/>
<path fill-rule="nonzero" fill="rgb(100%, 54.901963%, 0%)" fill-opacity="1" d="M 427.664062 441.683594 L 433.933594 441.683594 L 433.933594 441.65625 L 427.664062 441.65625 Z M 427.664062 441.683594 "/>
<path fill-rule="nonzero" fill="rgb(100%, 54.901963%, 0%)" fill-opacity="1" d="M 436.886719 441.683594 L 443.15625 441.683594 L 443.15625 441.632812 L 436.886719 441.632812 Z M 436.886719 441.683594 "/>
<path fill-rule="nonzero" fill="rgb(100%, 54.901963%, 0%)" fill-opacity="1" d="M 446.105469 441.683594 L 452.375 441.683594 L 452.375 441.660156 L 446.105469 441.660156 Z M 446.105469 441.683594 "/>
<path fill-rule="nonzero" fill="rgb(100%, 54.901963%, 0%)" fill-opacity="1" d="M 455.324219 441.683594 L 461.59375 441.683594 L 461.59375 441.652344 L 455.324219 441.652344 Z M 455.324219 441.683594 "/>
<path fill-rule="nonzero" fill="rgb(100%, 54.901963%, 0%)" fill-opacity="1" d="M 464.546875 441.683594 L 470.816406 441.683594 L 470.816406 441.660156 L 464.546875 441.660156 Z M 464.546875 441.683594 "/>
<path fill-rule="nonzero" fill="rgb(100%, 54.901963%, 0%)" fill-opacity="1" d="M 473.765625 441.683594 L 480.035156 441.683594 L 480.035156 441.660156 L 473.765625 441.660156 Z M 473.765625 441.683594 "/>
<path fill-rule="nonzero" fill="rgb(100%, 54.901963%, 0%)" fill-opacity="1" d="M 482.984375 441.683594 L 489.253906 441.683594 L 489.253906 441.664062 L 482.984375 441.664062 Z M 482.984375 441.683594 "/>
<path fill-rule="nonzero" fill="rgb(100%, 54.901963%, 0%)" fill-opacity="1" d="M 492.207031 441.683594 L 498.476562 441.683594 L 498.476562 441.671875 L 492.207031 441.671875 Z M 492.207031 441.683594 "/>
<path fill-rule="nonzero" fill="rgb(100%, 54.901963%, 0%)" fill-opacity="1" d="M 501.425781 441.683594 L 507.695312 441.683594 L 507.695312 441.679688 L 501.425781 441.679688 Z M 501.425781 441.683594 "/>
<path fill-rule="nonzero" fill="rgb(100%, 54.901963%, 0%)" fill-opacity="1" d="M 510.644531 441.683594 L 516.914062 441.683594 L 516.914062 441.671875 L 510.644531 441.671875 Z M 510.644531 441.683594 "/>
<path fill-rule="nonzero" fill="rgb(100%, 54.901963%, 0%)" fill-opacity="1" d="M 519.867188 441.683594 L 526.136719 441.683594 L 526.136719 441.679688 L 519.867188 441.679688 Z M 519.867188 441.683594 "/>
<path fill-rule="nonzero" fill="rgb(100%, 54.901963%, 0%)" fill-opacity="1" d="M 529.085938 441.683594 L 535.355469 441.683594 L 535.355469 441.675781 L 529.085938 441.675781 Z M 529.085938 441.683594 "/>
<path fill-rule="nonzero" fill="rgb(100%, 54.901963%, 0%)" fill-opacity="1" d="M 547.523438 441.683594 L 553.792969 441.683594 L 553.792969 441.679688 L 547.523438 441.679688 Z M 547.523438 441.683594 "/>
<path fill="none" stroke-width="1" stroke-linecap="butt" stroke-linejoin="miter" stroke="rgb(0%, 0%, 0%)" stroke-opacity="1" stroke-miterlimit="1.154701" d="M 62 461.5 L 62 466.5 "/>
<path fill="none" stroke-width="1" stroke-linecap="butt" stroke-linejoin="miter" stroke="rgb(0%, 0%, 0%)" stroke-opacity="1" stroke-miterlimit="1.154701" d="M 523 461.5 L 523 466.5 "/>
<path fill="none" stroke-width="1" stroke-linecap="butt" stroke-linejoin="miter" stroke="rgb(0%, 0%, 0%)" stroke-opacity="1" stroke-miterlimit="1.154701" d="M 984 461.5 L 984 466.5 "/>
<path fill="none" stroke-width="1" stroke-linecap="butt" stroke-linejoin="miter" stroke="rgb(0%, 0%, 0%)" stroke-opacity="1" stroke-miterlimit="1.154701" d="M 61.5 441.683594 L 56.5 441.683594 "/>
<path fill="none" stroke-width="1" stroke-linecap="butt" stroke-linejoin="miter" stroke="rgb(0%, 0%, 0%)" stroke-opacity="1" stroke-miterlimit="1.154701" d="M 61.5 281.1875 L 56.5 281.1875 "/>
<path fill="none" stroke-width="1" stroke-linecap="butt" stroke-linejoin="miter" stroke="rgb(0%, 0%, 0%)" stroke-opacity="1" stroke-miterlimit="1.154701" d="M 61.5 120.691406 L 56.5 120.691406 "/>
<path fill="none" stroke-width="1" stroke-linecap="butt" stroke-linejoin="miter" stroke="rgb(0%, 0%, 0%)" stroke-opacity="1" stroke-miterlimit="1.154701" d="M 61.5 461 L 984.5 461 "/>
<path fill="none" stroke-width="1" stroke-linecap="butt" stroke-linejoin="miter" stroke="rgb(0%, 0%, 0%)" stroke-opacity="1" stroke-miterlimit="1.154701" d="M 62 461.5 L 62 35.5 "/>
<path fill="none" stroke-width="1" stroke-linecap="butt" stroke-linejoin="miter" stroke="rgb(0%, 0%, 0%)" stroke-opacity="1" stroke-miterlimit="1.154701" d="M 61.5 36 L 984.5 36 "/>
<path fill="none" stroke-width="1" stroke-linecap="butt" stroke-linejoin="miter" stroke="rgb(0%, 0%, 0%)" stroke-opacity="1" stroke-miterlimit="1.154701" d="M 984 461.5 L 984 35.5 "/>
</svg>
